<svg width="20" height="20" viewBox="0 0 20 20" fill="none" xmlns="http://www.w3.org/2000/svg">
<path d="M13.107 3.2367C14.302 2.0367 16.0504 2.0117 17.0179 2.98337C17.9879 3.9567 17.962 5.7167 16.7654 6.9167L14.7462 8.9442C14.6325 9.06223 14.5697 9.2202 14.5714 9.38408C14.573 9.54796 14.639 9.70463 14.755 9.82035C14.8711 9.93607 15.0279 10.0016 15.1918 10.0028C15.3557 10.004 15.5135 9.94073 15.6312 9.8267L17.6512 7.7992C19.2437 6.20003 19.4437 3.64753 17.9037 2.10087C16.3621 0.553367 13.8145 0.755033 12.2204 2.3542L8.18205 6.41003C6.58955 8.0092 6.38955 10.5617 7.92955 12.1075C7.98707 12.1673 8.05592 12.2151 8.13209 12.248C8.20826 12.281 8.29023 12.2984 8.3732 12.2993C8.45618 12.3002 8.53851 12.2846 8.61538 12.2533C8.69226 12.2221 8.76214 12.1758 8.82096 12.1173C8.87977 12.0588 8.92634 11.9891 8.95795 11.9124C8.98955 11.8357 9.00556 11.7534 9.00504 11.6704C9.00453 11.5874 8.98749 11.5054 8.95492 11.4291C8.92236 11.3527 8.87493 11.2837 8.81538 11.2259C7.84538 10.2525 7.87205 8.49253 9.06788 7.29253L13.107 3.2367Z" fill="white"/>
<path d="M12.0686 7.89172C11.9515 7.77425 11.7925 7.70812 11.6266 7.70789C11.4607 7.70765 11.3015 7.77333 11.184 7.89046C11.0666 8.0076 11.0004 8.16661 11.0002 8.3325C11 8.49839 11.0656 8.65758 11.1828 8.77505C12.1528 9.74838 12.1269 11.5075 10.9303 12.7084L6.89111 16.7634C5.69528 17.9634 3.94695 17.9884 2.97945 17.0167C2.00945 16.0434 2.03611 14.2834 3.23195 13.0834L5.25195 11.0559C5.30989 10.9977 5.35581 10.9287 5.38709 10.8528C5.41837 10.7769 5.43438 10.6956 5.43423 10.6135C5.43407 10.5314 5.41775 10.4501 5.38619 10.3743C5.35463 10.2985 5.30844 10.2297 5.25028 10.1717C5.19211 10.1138 5.12311 10.0678 5.04719 10.0366C4.97128 10.0053 4.88995 9.98928 4.80785 9.98943C4.72575 9.98959 4.64448 10.0059 4.56869 10.0375C4.49289 10.069 4.42406 10.1152 4.36611 10.1734L2.34611 12.2009C0.753612 13.8009 0.553612 16.3525 2.09361 17.8992C3.63528 19.4475 6.18278 19.245 7.77695 17.6459L11.8161 13.59C13.4086 11.9917 13.6086 9.43755 12.0686 7.89172Z" fill="white"/>
</svg>
