<svg width="20" height="20" viewBox="0 0 20 20" fill="none" xmlns="http://www.w3.org/2000/svg">
<path d="M18.5101 4.71339C17.8742 4.99473 17.1998 5.17954 16.5093 5.26173C17.2368 4.82601 17.7812 4.14068 18.0409 3.33339C17.3576 3.74006 16.6084 4.02506 15.8284 4.17923C15.3039 3.61804 14.6087 3.24586 13.8509 3.12055C13.0931 2.99523 12.3151 3.1238 11.6378 3.48627C10.9606 3.84874 10.4221 4.4248 10.106 5.12489C9.78997 5.82498 9.71406 6.60988 9.8901 7.35756C8.50422 7.28822 7.14841 6.92817 5.91072 6.30078C4.67303 5.67339 3.58114 4.7927 2.70594 3.71589C2.39618 4.24794 2.2334 4.85275 2.23427 5.46839C2.23427 6.67673 2.8501 7.74423 3.78427 8.36923C3.23095 8.35178 2.68981 8.20235 2.20594 7.93339V7.97589C2.20591 8.78079 2.4843 9.56091 2.99388 10.184C3.50346 10.807 4.21287 11.2346 5.00177 11.3942C4.48814 11.5336 3.94952 11.5541 3.42677 11.4542C3.64921 12.1471 4.08278 12.753 4.66677 13.1871C5.25076 13.6212 5.9559 13.8617 6.68344 13.8751C5.9604 14.4429 5.13251 14.8627 4.24711 15.1104C3.36171 15.358 2.43618 15.4287 1.52344 15.3184C3.11654 16.3429 4.97102 16.8868 6.8651 16.8851C13.2768 16.8851 16.7818 11.5742 16.7818 6.96839C16.7818 6.81839 16.7784 6.66673 16.7718 6.51756C17.4538 6.02453 18.0424 5.41303 18.5101 4.71339Z" fill="white"/>
</svg>
