<svg width="24" height="24" viewBox="0 0 24 24" fill="none" xmlns="http://www.w3.org/2000/svg">
<path opacity="0.1" fill-rule="evenodd" clip-rule="evenodd" d="M0 12C0 5.37258 5.37258 0 12 0C18.6274 0 24 5.37258 24 12C24 18.6274 18.6274 24 12 24C5.37258 24 0 18.6274 0 12Z" fill="white"/>
<path d="M18.6693 8.00033C18.6693 7.26699 18.0693 6.66699 17.3359 6.66699H6.66927C5.93594 6.66699 5.33594 7.26699 5.33594 8.00033V16.0003C5.33594 16.7337 5.93594 17.3337 6.66927 17.3337H17.3359C18.0693 17.3337 18.6693 16.7337 18.6693 16.0003V8.00033ZM17.3359 8.00033L12.0026 11.3337L6.66927 8.00033H17.3359ZM17.3359 16.0003H6.66927V9.33366L12.0026 12.667L17.3359 9.33366V16.0003Z" fill="white"/>
</svg>
