<svg xmlns="http://www.w3.org/2000/svg" width="148" height="36" viewBox="0 0 148 36" fill="none">
  <path d="M4.94043 17.5371V24.5H1.50391V10.4395C1.50391 9.42122 1.93815 8.61263 2.80664 8.01367C3.39062 7.62435 4.03451 7.42969 4.73828 7.42969H15.3623L13.7451 10.3945H4.94043V14.5723H13.0713V17.5371H4.94043Z" fill="white"/>
  <path d="M25.29 24.7246H22.999C21.1423 24.7246 19.5625 24.0658 18.2598 22.748C17.0169 21.4902 16.3955 19.9854 16.3955 18.2334V13.6963C16.3955 11.8695 17.0544 10.3197 18.3721 9.04688C19.6748 7.81901 21.2171 7.20508 22.999 7.20508H25.29C27.1468 7.20508 28.7266 7.86393 30.0293 9.18164C31.2721 10.4395 31.8936 11.9443 31.8936 13.6963V18.2334C31.8936 20.0602 31.2347 21.61 29.917 22.8828C28.6143 24.1107 27.0719 24.7246 25.29 24.7246ZM22.999 21.7598H25.29C26.3232 21.7598 27.1543 21.2956 27.7832 20.3672C28.2174 19.7233 28.4346 19.012 28.4346 18.2334V13.6963C28.4346 12.5133 28.0078 11.57 27.1543 10.8662C26.6003 10.402 25.9788 10.1699 25.29 10.1699H22.999C21.9658 10.1699 21.1348 10.6266 20.5059 11.54C20.0566 12.1839 19.832 12.9027 19.832 13.6963V18.2334C19.832 19.4014 20.2513 20.3372 21.0898 21.041C21.6738 21.5202 22.3102 21.7598 22.999 21.7598Z" fill="white"/>
  <path d="M38.1152 21.5352H46.2461L47.8408 24.5H37.9131C36.805 24.5 35.929 24.0807 35.2852 23.2422C34.8809 22.7181 34.6787 22.1341 34.6787 21.4902V7.42969H38.1152V21.5352Z" fill="white"/>
  <path d="M49.3008 7.42969H52.7822V14.5723H54.9834L59.3408 7.42969H63.249L57.8359 15.9648L63.4961 24.5H59.5654L55.0957 17.5371H52.7822V24.5H49.3008V7.42969Z" fill="white"/>
  <path d="M65.1357 12.3037C65.1357 10.9261 65.7796 9.75814 67.0674 8.7998C68.3102 7.88639 69.7926 7.42969 71.5146 7.42969H73.8057C75.1982 7.42969 76.5459 7.75163 77.8486 8.39551C78.3877 8.68001 78.8219 8.97949 79.1514 9.29395L76.1416 11.6074C75.6475 10.9186 74.9736 10.5218 74.1201 10.417C74.0153 10.402 73.9105 10.3945 73.8057 10.3945H71.5146C70.3916 10.3945 69.5456 10.709 68.9766 11.3379C68.722 11.6523 68.5947 11.9743 68.5947 12.3037C68.5947 12.8877 69.2161 13.3893 70.459 13.8086C70.8483 13.9434 71.5072 14.1305 72.4355 14.3701C74.6816 14.9541 76.2539 15.5231 77.1523 16.0771C78.6198 16.9756 79.361 18.1585 79.376 19.626C79.376 20.9886 78.7171 22.1491 77.3994 23.1074C76.0967 24.0358 74.5544 24.5 72.7725 24.5H70.4814C69.029 24.5 67.6214 24.1781 66.2588 23.5342C65.6898 23.2497 65.2406 22.9502 64.9111 22.6357L67.876 20.3447C68.4001 21.0036 69.1338 21.3929 70.0771 21.5127C70.2269 21.5277 70.3617 21.5352 70.4814 21.5352H72.7725C73.9854 21.5352 74.8988 21.2132 75.5127 20.5693C75.7822 20.2699 75.917 19.9554 75.917 19.626C75.917 18.9671 75.2956 18.4206 74.0527 17.9863C73.873 17.9115 72.7874 17.6045 70.7959 17.0654C68.5049 16.4515 66.9476 15.7103 66.124 14.8418C65.4652 14.123 65.1357 13.277 65.1357 12.3037Z" fill="white"/>
  <path d="M91.6621 13.9209V18.0088C91.6621 19.1768 92.0814 20.1126 92.9199 20.8164C93.5039 21.2956 94.1403 21.5352 94.8291 21.5352H97.1201C98.0485 21.5352 98.8346 21.2207 99.4785 20.5918C99.5684 20.502 99.6432 20.4196 99.7031 20.3447L102.69 22.6357C101.852 23.4294 100.557 23.9909 98.8047 24.3203C98.1908 24.4401 97.6292 24.5 97.1201 24.5H94.8291C92.9723 24.5 91.3926 23.8411 90.0898 22.5234C88.847 21.2656 88.2256 19.7607 88.2256 18.0088V13.9209C88.2256 12.0941 88.8844 10.5443 90.2021 9.27148C91.5049 8.04362 93.0472 7.42969 94.8291 7.42969H97.1201C98.5726 7.42969 99.9801 7.75163 101.343 8.39551C101.912 8.68001 102.361 8.97949 102.69 9.29395L99.7031 11.6074C99.179 10.9336 98.4528 10.5368 97.5244 10.417C97.3747 10.402 97.2399 10.3945 97.1201 10.3945H94.8291C93.7959 10.3945 92.9648 10.8512 92.3359 11.7646C91.8867 12.4085 91.6621 13.1273 91.6621 13.9209Z" fill="white"/>
  <path d="M116.1 22.2314H108.62L110.462 19.2666H115.066L112.146 10.8887L107.385 24.5H103.701L108.71 10.2148C109.444 8.22331 110.589 7.22005 112.146 7.20508C113.704 7.22005 114.842 8.22331 115.561 10.2148L120.592 24.5H116.908L116.1 22.2314Z" fill="white"/>
  <path d="M125.938 10.3945V24.5H122.501V10.4395C122.501 9.42122 122.935 8.61263 123.804 8.01367C124.388 7.62435 125.032 7.42969 125.735 7.42969H130.385C132.466 7.42969 134.136 8.05111 135.394 9.29395C136.457 10.3571 136.988 11.6673 136.988 13.2246V13.876C136.988 15.8226 136.217 17.335 134.675 18.4131C134.091 18.8174 133.447 19.1243 132.743 19.334L137.37 24.5H133.08L128.812 19.6709H126.162L128.004 16.7061H130.385C131.792 16.7061 132.743 16.2194 133.237 15.2461C133.432 14.8418 133.529 14.3851 133.529 13.876V13.2246C133.529 11.877 132.923 11.001 131.71 10.5967C131.306 10.4619 130.864 10.3945 130.385 10.3945H125.938Z" fill="white"/>
</svg>