<svg width="20" height="20" viewBox="0 0 20 20" fill="none" xmlns="http://www.w3.org/2000/svg">
<path d="M11.668 9.16667H12.5013C13.4218 9.16667 14.168 9.91286 14.168 10.8333V13.3333C14.168 14.0237 14.7276 14.5833 15.418 14.5833C16.1083 14.5833 16.668 14.0237 16.668 13.3333V7.5L14.168 5" stroke="#0F0F0F" stroke-width="1.75" stroke-linecap="round" stroke-linejoin="round"/>
<path d="M3.33203 16.6663V4.99967C3.33203 4.0792 4.07822 3.33301 4.9987 3.33301H9.9987C10.9192 3.33301 11.6654 4.0792 11.6654 4.99967V16.6663" stroke="#0F0F0F" stroke-width="1.75" stroke-linecap="round" stroke-linejoin="round"/>
<path d="M2.5 16.6667H12.5" stroke="#0F0F0F" stroke-width="1.75" stroke-linecap="round" stroke-linejoin="round"/>
<path d="M15 5.8335V6.66683C15 7.12707 15.3731 7.50016 15.8333 7.50016H16.6667" stroke="#0F0F0F" stroke-width="1.75" stroke-linecap="round" stroke-linejoin="round"/>
<path d="M3.33203 9.16667H11.6654" stroke="#0F0F0F" stroke-width="1.75" stroke-linecap="round" stroke-linejoin="round"/>
</svg>
