<svg width="32" height="32" viewBox="0 0 32 32" fill="none" xmlns="http://www.w3.org/2000/svg">
<g id="Logo/Icon">
<path id="Combined-Shape" fill-rule="evenodd" clip-rule="evenodd" d="M3.14568 14.3005C3.44584 14.619 3.6711 15.0195 3.82144 15.5022C3.97178 15.9848 4.06896 16.6193 4.11299 17.4057H4.57711L4.30749 15.8531C4.47036 16.2537 4.58083 16.5467 4.63889 16.7322C4.69696 16.9177 4.74849 17.1422 4.7935 17.4057L9.34172 17.9204L10.5535 14.766L9.60199 18.2538C8.61213 18.0979 7.67374 17.9735 6.78682 17.8805C5.89989 17.7875 5.00862 17.72 4.11299 17.6781V18.2538C5.44066 18.3287 6.65898 18.4372 7.76793 18.5791C8.87689 18.721 9.98176 18.9098 11.0825 19.1456L12.2715 20.0318C11.9435 19.0327 11.8853 18.0756 12.097 17.1603C12.3086 16.245 12.7501 15.5441 13.4216 15.0576C14.1957 14.6801 14.8885 14.7821 15.5 15.3638C16.1115 15.9455 16.5118 16.6758 16.7011 17.5547L17.5489 20.8676C18.1551 21.0318 19.0812 21.1436 20.3271 21.2032C21.5731 21.2628 22.9865 21.2628 24.5672 21.2032L24.7673 20.8676C23.9584 20.8836 23.1842 20.8572 22.4447 20.7885C21.7052 20.7197 21.0944 20.6174 20.6123 20.4814C22.3951 20.5351 24.2053 20.5029 26.0429 20.3848C27.8805 20.2666 29.5329 20.0762 31 19.8135C30.2659 20.0253 29.4491 20.2157 28.5497 20.3848C27.6504 20.5538 26.7376 20.6883 25.8116 20.7885L25.2708 21.5832C24.106 21.6744 22.9027 21.7054 21.661 21.6761C20.4192 21.6467 19.1852 21.5582 17.9589 21.4105C17.8265 21.569 17.6679 21.6862 17.483 21.7621C17.2982 21.838 17.0794 21.8759 16.8266 21.8756L14.52 21.9997C14.1811 22.0066 13.833 21.8988 13.4756 21.6761C13.1183 21.4533 12.8608 21.1839 12.7033 20.8676C11.5541 20.28 10.2049 19.7901 8.65571 19.3978C7.10649 19.0055 5.49506 18.7457 3.82144 18.6186C3.05294 19.0472 2.33548 19.164 1.66908 18.9691C1.00268 18.7742 0.507526 18.3028 0.183613 17.5547C0.00116739 17.0827 -0.045314 16.6268 0.0441689 16.1869C0.133652 15.7471 0.353879 15.3489 0.704852 14.9926C0.942677 14.3827 1.3305 14.0163 1.86833 13.8933C2.40615 13.7704 2.83194 13.9062 3.14568 14.3005ZM14.7028 19.0751L14.2576 19.1881L14.2061 20.9725C14.4446 21.004 14.6593 20.9879 14.85 20.9241C15.0344 20.8625 15.206 20.7533 15.3647 20.5964L15.3811 20.58L14.7028 19.0751ZM13.8661 18.5555L12.696 19.043C12.7496 19.3163 12.8217 19.5562 12.9123 19.7628C13.0029 19.9694 13.1258 20.1742 13.2811 20.3772L14.0964 19.043L13.8661 18.5555ZM15.9747 17.5605L14.85 18.184V18.7626L15.9747 19.4664C16.063 19.1306 16.1071 18.7942 16.1071 18.4571C16.1071 18.12 16.063 17.8211 15.9747 17.5605ZM14.3876 18.2025C14.2596 18.2025 14.1559 18.306 14.1559 18.4336C14.1559 18.5612 14.2596 18.6647 14.3876 18.6647C14.5156 18.6647 14.6193 18.5612 14.6193 18.4336C14.6193 18.306 14.5156 18.2025 14.3876 18.2025ZM2.69951 17.136L2.30569 17.2686L2.18592 18.4248C2.42635 18.4418 2.64328 18.4249 2.83671 18.374C3.02269 18.325 3.18991 18.2439 3.33835 18.1307L3.35607 18.1169L2.69951 17.136ZM13.381 16.2375C13.1981 16.4501 13.0488 16.6783 12.9332 16.9222C12.8223 17.1564 12.745 17.3995 12.7013 17.6516L12.696 17.6832L13.8726 18.184L14.0964 17.7619L13.381 16.2375ZM1.80669 16.7811L0.752325 17.0436C0.80747 17.2639 0.885693 17.4524 0.986995 17.609C1.08424 17.7593 1.20431 17.8827 1.34718 17.9791L1.36516 17.991L2.0385 17.0907L1.80669 16.7811ZM14.3189 15.8139V17.6504L14.7066 17.8524L15.3811 16.3883C15.2514 16.2204 15.0993 16.0893 14.925 15.995C14.7506 15.9008 14.5486 15.8404 14.3189 15.8139ZM3.90109 16.0859L2.79504 16.5033L2.83602 16.9158L3.9387 17.2923C4.0094 17.0625 4.04164 16.8479 4.03542 16.6485C4.0292 16.449 3.98443 16.2615 3.90109 16.0859ZM2.37184 16.4198C2.22559 16.4198 2.10703 16.538 2.10703 16.6839C2.10703 16.8298 2.22559 16.948 2.37184 16.948C2.51809 16.948 2.63665 16.8298 2.63665 16.6839C2.63665 16.538 2.51809 16.4198 2.37184 16.4198ZM1.4818 15.2262C1.28422 15.3639 1.12633 15.5132 1.00813 15.6742C0.894473 15.8289 0.815705 15.9969 0.771826 16.1781L0.766728 16.1999L1.89595 16.5502L2.11831 16.1999L1.4818 15.2262ZM23.5318 13.8495C23.8708 14.2387 24.1077 14.5229 24.2426 14.702C24.3775 14.8811 24.5087 15.0857 24.636 15.3157L28.9334 15.5895L24.8191 15.6831C24.9308 15.9801 24.9688 16.1835 24.9332 16.2932C24.8976 16.4029 24.7742 16.4626 24.5629 16.4723L21.9573 16.2932L23.3759 16.1727H21.3369L20.8638 15.9439L23.6421 15.7865C23.0982 15.7537 22.5756 15.7373 22.0744 15.7373C21.5732 15.7373 21.0394 15.7629 20.4732 15.8139L20.1078 15.5895L23.7094 15.3384C22.9184 15.3088 22.2258 15.3012 21.6317 15.3157C21.0376 15.3301 20.4568 15.3687 19.8892 15.4314C19.8272 15.3364 19.8085 15.2581 19.8332 15.1964C19.8578 15.1347 19.9208 15.1023 20.022 15.0992C20.9333 15.0604 21.691 15.0409 22.2949 15.0409C22.8989 15.0409 23.5287 15.0604 24.1844 15.0992L23.5318 13.8495ZM2.32101 14.9714L2.29877 14.9745L2.37559 16.1515L2.78313 16.233L3.46653 15.2914C3.26683 15.1567 3.07047 15.0632 2.87744 15.0109C2.69183 14.9605 2.50635 14.9474 2.32101 14.9714ZM2.21597 13.2348L13.1447 13.6474L12.2708 14.766H11.544L11.6959 14.2178L2.91911 13.5543C2.28226 13.4837 1.72978 13.5586 1.26166 13.7787C0.793541 13.9988 0.487068 14.3279 0.34224 14.766C0.340222 14.3761 0.527652 14.0234 0.904532 13.708C1.28141 13.3925 1.71856 13.2348 2.21597 13.2348ZM14.6193 10.2777C16.3919 10.2857 18.0688 10.3776 19.65 10.5535C21.2311 10.7293 22.8071 10.9992 24.3781 11.363C23.2695 11.1626 22.1696 11.0132 21.0784 10.9147C19.9872 10.8163 18.6276 10.7438 16.9996 10.6974L20.4535 12.1872C21.8616 12.2018 23.2665 12.2917 24.668 12.457C26.0696 12.6223 27.2215 12.8338 28.1238 13.0917C26.7947 12.8892 25.4702 12.7548 24.1501 12.6884C22.8301 12.622 21.482 12.622 20.1059 12.6884C19.1708 12.1668 18.2313 11.6987 17.2873 11.2839C16.3433 10.8691 15.4539 10.5337 14.6193 10.2777ZM12.5066 10.3332C13.7459 10.635 14.6903 10.9847 15.3398 11.3823C16.182 11.8688 16.6323 12.2273 16.6909 12.4577C16.7495 12.6881 16.5537 12.826 16.1033 12.8714C13.9803 12.9423 12.1572 12.9783 10.6338 12.9794L10.4808 12.9794C10.3456 12.9793 10.213 12.9789 10.0827 12.9782C8.45429 12.9698 6.81868 12.9154 5.17587 12.8151L5.5718 12.4577C4.97138 12.4091 4.36532 12.4242 3.75362 12.5031C3.14191 12.5819 2.5515 12.721 1.98238 12.9204C2.50737 12.617 3.12041 12.3996 3.82149 12.268C4.52257 12.1364 5.34508 12.0845 6.28902 12.1121L5.73614 12.5855L13.2514 12.4577C14.2051 12.4351 14.801 12.359 15.0389 12.2294C15.2769 12.0998 15.2013 11.8926 14.8123 11.6077C14.1776 11.2882 13.565 11.0337 12.9744 10.8442C12.3839 10.6547 11.6724 10.4844 10.8401 10.3332C10.5181 10.2659 10.1887 10.2509 9.85179 10.2883C9.51489 10.3256 8.94801 10.5397 8.15116 10.9304L6.8314 11.7606C6.91093 11.6365 7.24067 11.3753 7.82063 10.9772C8.40059 10.5791 9.05625 10.2676 9.7876 10.0428C10.361 9.93462 11.2674 10.0314 12.5066 10.3332Z" fill="#D9D9D9"/>
</g>
</svg>
