<svg width="24" height="24" viewBox="0 0 24 24" fill="none" xmlns="http://www.w3.org/2000/svg">
<path opacity="0.1" fill-rule="evenodd" clip-rule="evenodd" d="M0 12C0 5.37258 5.37258 0 12 0C18.6274 0 24 5.37258 24 12C24 18.6274 18.6274 24 12 24C5.37258 24 0 18.6274 0 12Z" fill="white"/>
<path fill-rule="evenodd" clip-rule="evenodd" d="M12.0022 5.6001C10.264 5.6001 10.0459 5.6077 9.3632 5.63876C8.68186 5.66997 8.21679 5.77783 7.80985 5.9361C7.38891 6.09957 7.03184 6.31824 6.67611 6.67411C6.3201 7.02985 6.10143 7.38692 5.93743 7.80772C5.77876 8.21479 5.67076 8.68 5.6401 9.36107C5.60956 10.0437 5.60156 10.262 5.60156 12.0002C5.60156 13.7383 5.6093 13.9558 5.64023 14.6385C5.67156 15.3198 5.77943 15.7849 5.93757 16.1918C6.10117 16.6127 6.31984 16.9698 6.67571 17.3256C7.03131 17.6816 7.38838 17.9008 7.80905 18.0642C8.21626 18.2225 8.68146 18.3304 9.36267 18.3616C10.0453 18.3926 10.2633 18.4002 12.0014 18.4002C13.7396 18.4002 13.9571 18.3926 14.6398 18.3616C15.3211 18.3304 15.7867 18.2225 16.1939 18.0642C16.6147 17.9008 16.9713 17.6816 17.3269 17.3256C17.6829 16.9698 17.9016 16.6127 18.0656 16.1919C18.2229 15.7849 18.3309 15.3197 18.3629 14.6386C18.3936 13.9559 18.4016 13.7383 18.4016 12.0002C18.4016 10.262 18.3936 10.0439 18.3629 9.3612C18.3309 8.67986 18.2229 8.21479 18.0656 7.80785C17.9016 7.38692 17.6829 7.02985 17.3269 6.67411C16.9709 6.31811 16.6149 6.09944 16.1935 5.9361C15.7855 5.77783 15.3202 5.66997 14.6389 5.63876C13.9562 5.6077 13.7388 5.6001 12.0002 5.6001H12.0022ZM11.428 6.75343C11.5984 6.75316 11.7885 6.75343 12.0021 6.75343C13.711 6.75343 13.9135 6.75956 14.5883 6.79023C15.2123 6.81876 15.551 6.92303 15.7766 7.01063C16.0752 7.12663 16.2882 7.2653 16.512 7.4893C16.7361 7.7133 16.8747 7.92664 16.991 8.22531C17.0786 8.45064 17.183 8.78931 17.2114 9.41332C17.2421 10.088 17.2487 10.2907 17.2487 11.9987C17.2487 13.7067 17.2421 13.9094 17.2114 14.584C17.1829 15.208 17.0786 15.5467 16.991 15.7721C16.875 16.0707 16.7361 16.2834 16.512 16.5073C16.288 16.7313 16.0754 16.8699 15.7766 16.9859C15.5512 17.0739 15.2123 17.1779 14.5883 17.2065C13.9136 17.2371 13.711 17.2438 12.0021 17.2438C10.2932 17.2438 10.0906 17.2371 9.41597 17.2065C8.79197 17.1777 8.4533 17.0734 8.22756 16.9858C7.92889 16.8698 7.71556 16.7311 7.49155 16.5071C7.26755 16.2831 7.12888 16.0703 7.01262 15.7715C6.92502 15.5462 6.82061 15.2075 6.79221 14.5835C6.76155 13.9088 6.75541 13.7062 6.75541 11.9971C6.75541 10.288 6.76155 10.0864 6.79221 9.41172C6.82075 8.78771 6.92502 8.44904 7.01262 8.22344C7.12862 7.92477 7.26755 7.71143 7.49155 7.48743C7.71556 7.26343 7.92889 7.12476 8.22756 7.00849C8.45316 6.92049 8.79197 6.81649 9.41597 6.78783C10.0064 6.76116 10.2352 6.75316 11.428 6.75182V6.75343ZM15.4184 7.81611C14.9944 7.81611 14.6504 8.15971 14.6504 8.58385C14.6504 9.00785 14.9944 9.35185 15.4184 9.35185C15.8424 9.35185 16.1864 9.00785 16.1864 8.58385C16.1864 8.15984 15.8424 7.81611 15.4184 7.81611ZM12.0022 8.71345C10.1871 8.71345 8.71547 10.1851 8.71547 12.0001C8.71547 13.8152 10.1871 15.2862 12.0022 15.2862C13.8173 15.2862 15.2883 13.8152 15.2883 12.0001C15.2883 10.1851 13.8173 8.71345 12.0022 8.71345ZM12.0021 9.86679C13.1803 9.86679 14.1355 10.8219 14.1355 12.0001C14.1355 13.1783 13.1803 14.1335 12.0021 14.1335C10.8239 14.1335 9.86879 13.1783 9.86879 12.0001C9.86879 10.8219 10.8239 9.86679 12.0021 9.86679Z" fill="white"/>
</svg>
