<svg width="21" height="20" viewBox="0 0 21 20" fill="none" xmlns="http://www.w3.org/2000/svg">
<path d="M7.33268 14.1668H8.87435L9.35352 12.7085H11.9368L12.416 14.1668H13.9993L11.4993 7.12516H9.83268L7.33268 14.1668ZM9.74935 11.5002L10.666 8.75016L11.5618 11.5002H9.74935ZM8.16602 2.50016V0.833496H13.166V2.50016H8.16602ZM10.666 18.3335C9.63824 18.3335 8.66935 18.1354 7.75935 17.7393C6.84935 17.3432 6.05435 16.8052 5.37435 16.1252C4.69379 15.4446 4.15546 14.6493 3.75935 13.7393C3.36324 12.8293 3.16546 11.8607 3.16602 10.8335C3.16602 9.80572 3.36407 8.83683 3.76018 7.92683C4.15629 7.01683 4.69435 6.22183 5.37435 5.54183C6.05491 4.86127 6.85018 4.32294 7.76018 3.92683C8.67018 3.53072 9.63879 3.33294 10.666 3.3335C11.5271 3.3335 12.3535 3.47239 13.1452 3.75016C13.9368 4.02794 14.6799 4.43072 15.3743 4.9585L16.541 3.79183L17.7077 4.9585L16.541 6.12516C17.0688 6.81961 17.4716 7.56266 17.7494 8.35433C18.0271 9.146 18.166 9.97239 18.166 10.8335C18.166 11.8613 17.968 12.8302 17.5719 13.7402C17.1757 14.6502 16.6377 15.4452 15.9577 16.1252C15.2771 16.8057 14.4818 17.3441 13.5718 17.7402C12.6618 18.1363 11.6932 18.3341 10.666 18.3335ZM10.666 16.6668C12.2771 16.6668 13.6521 16.0974 14.791 14.9585C15.9299 13.8196 16.4994 12.4446 16.4994 10.8335C16.4994 9.22239 15.9299 7.84739 14.791 6.7085C13.6521 5.56961 12.2771 5.00016 10.666 5.00016C9.05491 5.00016 7.67991 5.56961 6.54102 6.7085C5.40213 7.84739 4.83268 9.22239 4.83268 10.8335C4.83268 12.4446 5.40213 13.8196 6.54102 14.9585C7.67991 16.0974 9.05491 16.6668 10.666 16.6668Z" fill="black"/>
</svg>
