<svg width="80" height="80" viewBox="0 0 80 80" fill="none" xmlns="http://www.w3.org/2000/svg">
<rect width="80" height="80" rx="40" fill="#E9E9E9"/>
<path d="M40 36.6667C40.766 36.6667 41.5246 36.5158 42.2323 36.2226C42.9401 35.9295 43.5831 35.4998 44.1248 34.9581C44.6665 34.4164 45.0961 33.7734 45.3893 33.0657C45.6824 32.3579 45.8333 31.5994 45.8333 30.8333C45.8333 30.0673 45.6824 29.3087 45.3893 28.601C45.0961 27.8933 44.6665 27.2502 44.1248 26.7085C43.5831 26.1669 42.9401 25.7372 42.2323 25.444C41.5246 25.1509 40.766 25 40 25C38.4529 25 36.9692 25.6146 35.8752 26.7085C34.7812 27.8025 34.1667 29.2862 34.1667 30.8333C34.1667 32.3804 34.7812 33.8642 35.8752 34.9581C36.9692 36.0521 38.4529 36.6667 40 36.6667ZM25 54V55H55V54C55 50.2667 55 48.4 54.2733 46.9733C53.6342 45.719 52.6144 44.6991 51.36 44.06C49.9333 43.3333 48.0667 43.3333 44.3333 43.3333H35.6667C31.9333 43.3333 30.0667 43.3333 28.64 44.06C27.3856 44.6991 26.3658 45.719 25.7267 46.9733C25 48.4 25 50.2667 25 54Z" stroke="black" stroke-width="1.66667" stroke-linecap="round" stroke-linejoin="round"/>
</svg>
