<svg width="100" height="104" viewBox="0 0 100 104" fill="none" xmlns="http://www.w3.org/2000/svg">
<g filter="url(#filter0_d_1298_1344)">
<path d="M45.5 2.59808C48.2846 0.99038 51.7154 0.990381 54.5 2.59808L88.8013 22.4019C91.5859 24.0096 93.3013 26.9808 93.3013 30.1962V69.8038C93.3013 73.0192 91.5859 75.9904 88.8013 77.5981L54.5 97.4019C51.7154 99.0096 48.2846 99.0096 45.5 97.4019L11.1987 77.5981C8.41412 75.9904 6.69873 73.0192 6.69873 69.8038V30.1962C6.69873 26.9808 8.41412 24.0096 11.1987 22.4019L45.5 2.59808Z" fill="#3081ED"/>
</g>
<path d="M31.301 62V53.84C31.301 50.96 31.829 48.848 32.885 47.504C33.973 46.128 35.925 45.248 38.741 44.864L55.541 43.52C57.045 43.36 58.117 43.072 58.757 42.656C59.429 42.24 59.765 41.44 59.765 40.256L59.717 39.584C59.717 38.336 59.413 37.504 58.805 37.088C58.229 36.64 57.061 36.416 55.301 36.416H50.309L44.645 36.512C43.749 36.512 42.965 36.624 42.293 36.848C41.653 37.04 41.173 37.36 40.853 37.808C40.533 38.256 40.325 38.688 40.229 39.104C40.165 39.52 40.133 40 40.133 40.544V41.648H31.301L31.253 39.392C31.253 35.2 32.101 32.592 33.797 31.568C35.493 30.544 38.581 30.032 43.061 30.032L53.813 29.84L59.189 29.936C62.773 29.936 65.269 30.64 66.677 32.048C68.117 33.424 68.837 35.904 68.837 39.488C68.837 43.552 68.149 46.368 66.773 47.936C65.397 49.472 62.709 50.24 58.709 50.24L50.789 50.768L44.069 51.248C42.789 51.248 41.797 51.408 41.093 51.728C40.421 52.048 40.085 52.848 40.085 54.128V55.52H68.837V62H31.301Z" fill="white"/>
<defs>
<filter id="filter0_d_1298_1344" x="6.69922" y="1.39209" width="86.6016" height="102.216" filterUnits="userSpaceOnUse" color-interpolation-filters="sRGB">
<feFlood flood-opacity="0" result="BackgroundImageFix"/>
<feColorMatrix in="SourceAlpha" type="matrix" values="0 0 0 0 0 0 0 0 0 0 0 0 0 0 0 0 0 0 127 0" result="hardAlpha"/>
<feOffset dy="5"/>
<feComposite in2="hardAlpha" operator="out"/>
<feColorMatrix type="matrix" values="0 0 0 0 0.607843 0 0 0 0 0.317647 0 0 0 0 0.878431 0 0 0 1 0"/>
<feBlend mode="normal" in2="BackgroundImageFix" result="effect1_dropShadow_1298_1344"/>
<feBlend mode="normal" in="SourceGraphic" in2="effect1_dropShadow_1298_1344" result="shape"/>
</filter>
</defs>
</svg>
