<svg width="20" height="20" viewBox="0 0 20 20" fill="none" xmlns="http://www.w3.org/2000/svg">
<g clip-path="url(#clip0_1041_683)">
<path d="M10.0013 1.66699V3.75033M10.0013 1.66699C5.39893 1.66699 1.66797 5.39795 1.66797 10.0003M10.0013 1.66699C14.6037 1.66699 18.3346 5.39795 18.3346 10.0003M10.0013 16.2503V18.3337M10.0013 18.3337C14.6037 18.3337 18.3346 14.6027 18.3346 10.0003M10.0013 18.3337C5.39893 18.3337 1.66797 14.6027 1.66797 10.0003M3.7513 10.0003H1.66797M18.3346 10.0003H16.2513M15.9 15.899L14.4219 14.4209M4.10266 15.899L5.58226 14.4194M4.10266 4.16699L5.5497 5.61403M15.9 4.16699L11.2512 8.75033M11.668 10.0003C11.668 10.9208 10.9218 11.667 10.0013 11.667C9.08083 11.667 8.33464 10.9208 8.33464 10.0003C8.33464 9.07985 9.08083 8.33366 10.0013 8.33366C10.9218 8.33366 11.668 9.07985 11.668 10.0003Z" stroke="black" stroke-width="1.5" stroke-linecap="round" stroke-linejoin="round"/>
</g>
<defs>
<clipPath id="clip0_1041_683">
<rect width="20" height="20" fill="white"/>
</clipPath>
</defs>
</svg>
