<svg width="57" height="56" viewBox="0 0 57 56" fill="none" xmlns="http://www.w3.org/2000/svg">
<rect x="4.33398" y="4" width="48" height="48" rx="24" fill="white"/>
<path d="M22.834 29L23.6184 30.5689C23.8839 31.0999 24.0167 31.3654 24.194 31.5954C24.3514 31.7996 24.5344 31.9826 24.7385 32.14C24.9686 32.3173 25.2341 32.4501 25.7651 32.7155L27.334 33.5L25.7651 34.2845C25.2341 34.5499 24.9686 34.6827 24.7385 34.86C24.5344 35.0174 24.3514 35.2004 24.194 35.4046C24.0167 35.6346 23.8839 35.9001 23.6184 36.4311L22.834 38L22.0495 36.4311C21.784 35.9001 21.6513 35.6346 21.474 35.4046C21.3166 35.2004 21.1336 35.0174 20.9294 34.86C20.6994 34.6827 20.4339 34.5499 19.9029 34.2845L18.334 33.5L19.9029 32.7155C20.4339 32.4501 20.6994 32.3173 20.9294 32.14C21.1336 31.9826 21.3166 31.7996 21.474 31.5954C21.6513 31.3654 21.784 31.0999 22.0495 30.5689L22.834 29Z" stroke="#0F0F0F" stroke-width="2" stroke-linecap="round" stroke-linejoin="round"/>
<path d="M31.334 18L32.5126 21.0644C32.7946 21.7976 32.9356 22.1643 33.1549 22.4726C33.3492 22.746 33.588 22.9847 33.8613 23.1791C34.1697 23.3984 34.5363 23.5394 35.2696 23.8214L38.334 25L35.2696 26.1786C34.5363 26.4606 34.1697 26.6016 33.8613 26.8209C33.588 27.0153 33.3492 27.254 33.1549 27.5274C32.9356 27.8357 32.7946 28.2024 32.5126 28.9356L31.334 32L30.1554 28.9356C29.8734 28.2024 29.7323 27.8357 29.5131 27.5274C29.3187 27.254 29.0799 27.0153 28.8066 26.8209C28.4982 26.6016 28.1316 26.4606 27.3984 26.1786L24.334 25L27.3984 23.8214C28.1316 23.5394 28.4982 23.3984 28.8066 23.1791C29.0799 22.9847 29.3187 22.746 29.5131 22.4726C29.7323 22.1643 29.8734 21.7976 30.1554 21.0644L31.334 18Z" stroke="#0F0F0F" stroke-width="2" stroke-linecap="round" stroke-linejoin="round"/>
<rect x="4.33398" y="4" width="48" height="48" rx="24" stroke="white" stroke-opacity="0.9" stroke-width="8"/>
</svg>
