<svg width="148" height="36" viewBox="0 0 148 36" fill="none" xmlns="http://www.w3.org/2000/svg">
<g id="Logo/Text">
<g id="Logo/Text_2">
<path d="M4.94043 19.6272V26.7891H1.50391V12.3268C1.50391 11.2795 1.93815 10.4478 2.80664 9.8317C3.39062 9.43125 4.03451 9.23103 4.73828 9.23103H15.3623L13.7451 12.2806H4.94043V16.5777H13.0713V19.6272H4.94043Z" fill="white"/>
<path d="M25.29 27.0201H22.999C21.1423 27.0201 19.5625 26.3424 18.2598 24.9871C17.0169 23.6933 16.3955 22.1454 16.3955 20.3434V15.6767C16.3955 13.7977 17.0544 12.2036 18.3721 10.8944C19.6748 9.63147 21.2171 9 22.999 9H25.29C27.1468 9 28.7266 9.67768 30.0293 11.033C31.2721 12.3268 31.8936 13.8747 31.8936 15.6767V20.3434C31.8936 22.2224 31.2347 23.8165 29.917 25.1257C28.6143 26.3886 27.0719 27.0201 25.29 27.0201ZM22.999 23.9705H25.29C26.3232 23.9705 27.1543 23.4931 27.7832 22.5382C28.2174 21.8759 28.4346 21.1443 28.4346 20.3434V15.6767C28.4346 14.4599 28.0078 13.4896 27.1543 12.7657C26.6003 12.2883 25.9788 12.0496 25.29 12.0496H22.999C21.9658 12.0496 21.1348 12.5193 20.5059 13.4588C20.0566 14.1211 19.832 14.8604 19.832 15.6767V20.3434C19.832 21.5448 20.2513 22.5074 21.0898 23.2313C21.6738 23.7241 22.3102 23.9705 22.999 23.9705Z" fill="white"/>
<path d="M38.1152 23.7395H46.2461L47.8408 26.7891H37.9131C36.805 26.7891 35.929 26.3578 35.2852 25.4953C34.8809 24.9563 34.6787 24.3556 34.6787 23.6933V9.23103H38.1152V23.7395Z" fill="white"/>
<path d="M49.3008 9.23103H52.7822V16.5777H54.9834L59.3408 9.23103H63.249L57.8359 18.01L63.4961 26.7891H59.5654L55.0957 19.6272H52.7822V26.7891H49.3008V9.23103Z" fill="white"/>
<path d="M65.1357 14.2443C65.1357 12.8273 65.7796 11.626 67.0674 10.6403C68.3102 9.70078 69.7926 9.23103 71.5146 9.23103H73.8057C75.1982 9.23103 76.5459 9.56217 77.8486 10.2244C78.3877 10.5171 78.8219 10.8251 79.1514 11.1485L76.1416 13.5281C75.6475 12.8196 74.9736 12.4115 74.1201 12.3037C74.0153 12.2883 73.9105 12.2806 73.8057 12.2806H71.5146C70.3916 12.2806 69.5456 12.604 68.9766 13.2509C68.722 13.5743 68.5947 13.9055 68.5947 14.2443C68.5947 14.845 69.2161 15.3609 70.459 15.7922C70.8483 15.9308 71.5072 16.1233 72.4355 16.3698C74.6816 16.9704 76.2539 17.5557 77.1523 18.1256C78.6198 19.0497 79.361 20.2664 79.376 21.7758C79.376 23.1773 78.7171 24.371 77.3994 25.3567C76.0967 26.3116 74.5544 26.7891 72.7725 26.7891H70.4814C69.029 26.7891 67.6214 26.4579 66.2588 25.7956C65.6898 25.503 65.2406 25.195 64.9111 24.8715L67.876 22.5151C68.4001 23.1927 69.1338 23.5932 70.0771 23.7164C70.2269 23.7318 70.3617 23.7395 70.4814 23.7395H72.7725C73.9854 23.7395 74.8988 23.4084 75.5127 22.7461C75.7822 22.4381 75.917 22.1146 75.917 21.7758C75.917 21.0981 75.2956 20.5359 74.0527 20.0893C73.873 20.0123 72.7874 19.6965 70.7959 19.1421C68.5049 18.5106 66.9476 17.7482 66.124 16.8549C65.4652 16.1156 65.1357 15.2454 65.1357 14.2443Z" fill="white"/>
<path d="M91.6621 15.9077V20.1124C91.6621 21.3137 92.0814 22.2763 92.9199 23.0002C93.5039 23.4931 94.1403 23.7395 94.8291 23.7395H97.1201C98.0485 23.7395 98.8346 23.4161 99.4785 22.7692C99.5684 22.6768 99.6432 22.5921 99.7031 22.5151L102.69 24.8715C101.852 25.6878 100.557 26.2654 98.8047 26.6042C98.1908 26.7275 97.6292 26.7891 97.1201 26.7891H94.8291C92.9723 26.7891 91.3926 26.1114 90.0898 24.756C88.847 23.4623 88.2256 21.9144 88.2256 20.1124V15.9077C88.2256 14.0287 88.8844 12.4346 90.2021 11.1254C91.5049 9.8625 93.0472 9.23103 94.8291 9.23103H97.1201C98.5726 9.23103 99.9801 9.56217 101.343 10.2244C101.912 10.5171 102.361 10.8251 102.69 11.1485L99.7031 13.5281C99.179 12.835 98.4528 12.4269 97.5244 12.3037C97.3747 12.2883 97.2399 12.2806 97.1201 12.2806H94.8291C93.7959 12.2806 92.9648 12.7503 92.3359 13.6898C91.8867 14.3521 91.6621 15.0914 91.6621 15.9077Z" fill="white"/>
<path d="M116.1 24.4557H108.62L110.462 21.4061H115.066L112.146 12.7888L107.385 26.7891H103.701L108.71 12.0958C109.444 10.0473 110.589 9.0154 112.146 9C113.704 9.0154 114.842 10.0473 115.561 12.0958L120.592 26.7891H116.908L116.1 24.4557Z" fill="white"/>
<path d="M125.938 12.2806V26.7891H122.501V12.3268C122.501 11.2795 122.935 10.4478 123.804 9.8317C124.388 9.43125 125.032 9.23103 125.735 9.23103H130.385C132.466 9.23103 134.136 9.8702 135.394 11.1485C136.457 12.2421 136.988 13.5897 136.988 15.1915V15.8615C136.988 17.8637 136.217 19.4193 134.675 20.5282C134.091 20.9441 133.447 21.2598 132.743 21.4754L137.37 26.7891H133.08L128.812 21.822H126.162L128.004 18.7724H130.385C131.792 18.7724 132.743 18.2719 133.237 17.2708C133.432 16.8549 133.529 16.3852 133.529 15.8615V15.1915C133.529 13.8054 132.923 12.9044 131.71 12.4885C131.306 12.3499 130.864 12.2806 130.385 12.2806H125.938Z" fill="white"/>
</g>
</g>
</svg>
