<svg width="136" height="36" viewBox="0 0 136 36" fill="none" xmlns="http://www.w3.org/2000/svg">
<path d="M3.43991 19.6154V26.7692H0V12.3231C0 11.2769 0.434672 10.4462 1.30402 9.83077C1.88858 9.43077 2.53309 9.23077 3.23756 9.23077H13.872L12.2533 12.2769H3.43991V16.5692H11.5788V19.6154H3.43991Z" fill="white"/>
<path d="M23.8096 27H21.5163C19.6577 27 18.0764 26.3231 16.7724 24.9692C15.5283 23.6769 14.9063 22.1308 14.9063 20.3308V15.6692C14.9063 13.7923 15.5658 12.2 16.8848 10.8923C18.1888 9.63077 19.7326 9 21.5163 9H23.8096C25.6682 9 27.2495 9.67692 28.5535 11.0308C29.7975 12.3231 30.4196 13.8692 30.4196 15.6692V20.3308C30.4196 22.2077 29.7601 23.8 28.4411 25.1077C27.137 26.3692 25.5932 27 23.8096 27ZM21.5163 23.9538H23.8096C24.8438 23.9538 25.6756 23.4769 26.3052 22.5231C26.7398 21.8615 26.9572 21.1308 26.9572 20.3308V15.6692C26.9572 14.4538 26.53 13.4846 25.6756 12.7615C25.1211 12.2846 24.499 12.0462 23.8096 12.0462H21.5163C20.4821 12.0462 19.6502 12.5154 19.0207 13.4538C18.571 14.1154 18.3462 14.8538 18.3462 15.6692V20.3308C18.3462 21.5308 18.7659 22.4923 19.6052 23.2154C20.1898 23.7077 20.8268 23.9538 21.5163 23.9538Z" fill="white"/>
<path d="M36.6474 23.7231H44.7862L46.3825 26.7692H36.445C35.3359 26.7692 34.459 26.3385 33.8145 25.4769C33.4098 24.9385 33.2075 24.3385 33.2075 23.6769V9.23077H36.6474V23.7231Z" fill="white"/>
<path d="M47.8439 9.23077H51.3288V16.5692H53.5322L57.8939 9.23077H61.8059L56.3875 18L62.0532 26.7692H58.1187L53.6446 19.6154H51.3288V26.7692H47.8439V9.23077Z" fill="white"/>
<path d="M63.6945 14.2385C63.6945 12.8231 64.339 11.6231 65.628 10.6385C66.8721 9.7 68.356 9.23077 70.0797 9.23077H72.3729C73.7669 9.23077 75.1159 9.56154 76.4199 10.2231C76.9595 10.5154 77.3942 10.8231 77.7239 11.1462L74.7112 13.5231C74.2166 12.8154 73.5421 12.4077 72.6877 12.3C72.5828 12.2846 72.4779 12.2769 72.3729 12.2769H70.0797C68.9555 12.2769 68.1087 12.6 67.5391 13.2462C67.2843 13.5692 67.1569 13.9 67.1569 14.2385C67.1569 14.8385 67.7789 15.3538 69.023 15.7846C69.4127 15.9231 70.0722 16.1154 71.0015 16.3615C73.2498 16.9615 74.8236 17.5462 75.7229 18.1154C77.1918 19.0385 77.9338 20.2538 77.9487 21.7615C77.9487 23.1615 77.2892 24.3538 75.9702 25.3385C74.6662 26.2923 73.1224 26.7692 71.3387 26.7692H69.0455C67.5916 26.7692 66.1826 26.4385 64.8186 25.7769C64.2491 25.4846 63.7994 25.1769 63.4697 24.8538L66.4374 22.5C66.962 23.1769 67.6965 23.5769 68.6408 23.7C68.7906 23.7154 68.9256 23.7231 69.0455 23.7231H71.3387C72.5528 23.7231 73.4671 23.3923 74.0817 22.7308C74.3515 22.4231 74.4864 22.1 74.4864 21.7615C74.4864 21.0846 73.8643 20.5231 72.6203 20.0769C72.4404 20 71.3537 19.6846 69.3602 19.1308C67.0669 18.5 65.5081 17.7385 64.6837 16.8462C64.0242 16.1077 63.6945 15.2385 63.6945 14.2385Z" fill="white"/>
<path d="M90.247 15.9V20.1C90.247 21.3 90.6667 22.2615 91.506 22.9846C92.0906 23.4769 92.7276 23.7231 93.4171 23.7231H95.7104C96.6397 23.7231 97.4266 23.4 98.0711 22.7538C98.161 22.6615 98.236 22.5769 98.2959 22.5L101.286 24.8538C100.447 25.6692 99.1503 26.2462 97.3966 26.5846C96.7821 26.7077 96.22 26.7692 95.7104 26.7692H93.4171C91.5585 26.7692 89.9772 26.0923 88.6732 24.7385C87.4291 23.4462 86.8071 21.9 86.8071 20.1V15.9C86.8071 14.0231 87.4666 12.4308 88.7856 11.1231C90.0896 9.86154 91.6334 9.23077 93.4171 9.23077H95.7104C97.1643 9.23077 98.5732 9.56154 99.9372 10.2231C100.507 10.5154 100.956 10.8231 101.286 11.1462L98.2959 13.5231C97.7713 12.8308 97.0444 12.4231 96.1151 12.3C95.9652 12.2846 95.8303 12.2769 95.7104 12.2769H93.4171C92.3829 12.2769 91.551 12.7462 90.9215 13.6846C90.4718 14.3462 90.247 15.0846 90.247 15.9Z" fill="white"/>
<path d="M114.709 24.4385H107.222L109.065 21.3923H113.674L110.752 12.7846L105.985 26.7692H102.298L107.312 12.0923C108.046 10.0462 109.193 9.01538 110.752 9C112.31 9.01538 113.449 10.0462 114.169 12.0923L119.205 26.7692H115.518L114.709 24.4385Z" fill="white"/>
<path d="M124.556 12.2769V26.7692H121.116V12.3231C121.116 11.2769 121.551 10.4462 122.42 9.83077C123.005 9.43077 123.649 9.23077 124.354 9.23077H129.008C131.091 9.23077 132.762 9.86923 134.021 11.1462C135.086 12.2385 135.618 13.5846 135.618 15.1846V15.8538C135.618 17.8538 134.846 19.4077 133.302 20.5154C132.717 20.9308 132.073 21.2462 131.368 21.4615L136 26.7692H131.706L127.434 21.8077H124.781L126.625 18.7615H129.008C130.417 18.7615 131.368 18.2615 131.863 17.2615C132.058 16.8462 132.155 16.3769 132.155 15.8538V15.1846C132.155 13.8 131.548 12.9 130.334 12.4846C129.93 12.3462 129.487 12.2769 129.008 12.2769H124.556Z" fill="white"/>
</svg>
