<svg width="100" height="104" viewBox="0 0 100 104" fill="none" xmlns="http://www.w3.org/2000/svg">
<g filter="url(#filter0_d_1298_1348)">
<path d="M45.5 2.59808C48.2846 0.99038 51.7154 0.990381 54.5 2.59808L88.8013 22.4019C91.5859 24.0096 93.3013 26.9808 93.3013 30.1962V69.8038C93.3013 73.0192 91.5859 75.9904 88.8013 77.5981L54.5 97.4019C51.7154 99.0096 48.2846 99.0096 45.5 97.4019L11.1987 77.5981C8.41412 75.9904 6.69873 73.0192 6.69873 69.8038V30.1962C6.69873 26.9808 8.41412 24.0096 11.1987 22.4019L45.5 2.59808Z" fill="#3081ED"/>
</g>
<path d="M52.661 42.896H54.341C56.037 42.896 57.285 42.752 58.085 42.464C58.917 42.176 59.333 41.392 59.333 40.112C59.333 38.64 59.045 37.68 58.469 37.232C57.893 36.752 56.629 36.512 54.677 36.512H54.245L48.917 36.368L44.309 36.512C42.901 36.512 41.829 36.768 41.093 37.28C40.389 37.76 40.037 38.672 40.037 40.016L40.085 40.88H31.013C31.013 37.04 31.621 34.384 32.837 32.912C34.085 31.44 36.021 30.592 38.645 30.368C41.301 30.112 43.237 29.968 44.453 29.936C45.701 29.872 47.301 29.84 49.253 29.84H50.549L57.989 29.984C61.637 29.984 64.277 30.608 65.909 31.856C67.573 33.072 68.405 35.44 68.405 38.96C68.405 39.984 68.341 40.848 68.213 41.552C68.085 42.256 67.797 42.944 67.349 43.616C66.933 44.256 66.133 44.784 64.949 45.2C63.541 45.584 62.549 45.856 61.973 46.016C64.757 46.336 66.661 46.976 67.685 47.936C68.709 48.864 69.221 50.704 69.221 53.456C69.221 56.272 68.421 58.432 66.821 59.936C65.253 61.408 61.877 62.144 56.693 62.144H49.109L42.965 62.096C38.741 62.096 35.653 61.52 33.701 60.368C31.781 59.184 30.821 56.608 30.821 52.64L30.917 50.912H39.701C39.701 52.608 39.989 53.808 40.565 54.512C41.141 55.184 42.261 55.52 43.925 55.52L49.493 55.568H54.869L55.973 55.616C57.221 55.616 58.213 55.408 58.949 54.992C59.717 54.576 60.101 53.76 60.101 52.544C60.101 51.2 59.797 50.288 59.189 49.808C58.581 49.296 57.589 49.04 56.213 49.04L53.861 49.088H46.181V42.896H52.661Z" fill="white"/>
<defs>
<filter id="filter0_d_1298_1348" x="6.69922" y="1.39209" width="86.6016" height="102.216" filterUnits="userSpaceOnUse" color-interpolation-filters="sRGB">
<feFlood flood-opacity="0" result="BackgroundImageFix"/>
<feColorMatrix in="SourceAlpha" type="matrix" values="0 0 0 0 0 0 0 0 0 0 0 0 0 0 0 0 0 0 127 0" result="hardAlpha"/>
<feOffset dy="5"/>
<feComposite in2="hardAlpha" operator="out"/>
<feColorMatrix type="matrix" values="0 0 0 0 0.607843 0 0 0 0 0.317647 0 0 0 0 0.878431 0 0 0 1 0"/>
<feBlend mode="normal" in2="BackgroundImageFix" result="effect1_dropShadow_1298_1348"/>
<feBlend mode="normal" in="SourceGraphic" in2="effect1_dropShadow_1298_1348" result="shape"/>
</filter>
</defs>
</svg>
