<svg width="57" height="56" viewBox="0 0 57 56" fill="none" xmlns="http://www.w3.org/2000/svg">
<rect x="4.66797" y="4" width="48" height="48" rx="24" fill="white"/>
<path d="M25.668 28L27.668 30L32.168 25.5M24.0017 19.8187C24.8056 19.7545 25.5687 19.4385 26.1824 18.9154C27.6147 17.6949 29.7212 17.6949 31.1535 18.9154C31.7673 19.4385 32.5304 19.7545 33.3342 19.8187C35.21 19.9684 36.6996 21.4579 36.8493 23.3338C36.9134 24.1376 37.2295 24.9007 37.7526 25.5145C38.9731 26.9467 38.9731 29.0533 37.7526 30.4855C37.2295 31.0993 36.9134 31.8624 36.8493 32.6662C36.6996 34.5421 35.21 36.0316 33.3342 36.1813C32.5304 36.2455 31.7673 36.5615 31.1535 37.0846C29.7212 38.3051 27.6147 38.3051 26.1824 37.0846C25.5687 36.5615 24.8056 36.2455 24.0017 36.1813C22.1259 36.0316 20.6364 34.5421 20.4867 32.6662C20.4225 31.8624 20.1064 31.0993 19.5834 30.4855C18.3628 29.0533 18.3628 26.9467 19.5834 25.5145C20.1064 24.9007 20.4225 24.1376 20.4867 23.3338C20.6364 21.4579 22.1259 19.9684 24.0017 19.8187Z" stroke="#0F0F0F" stroke-width="2" stroke-linecap="round" stroke-linejoin="round"/>
<rect x="4.66797" y="4" width="48" height="48" rx="24" stroke="white" stroke-opacity="0.9" stroke-width="8"/>
</svg>
