<svg width="24" height="24" viewBox="0 0 24 24" fill="none" xmlns="http://www.w3.org/2000/svg">
<path opacity="0.1" fill-rule="evenodd" clip-rule="evenodd" d="M0 12C0 5.37258 5.37258 0 12 0C18.6274 0 24 5.37258 24 12C24 18.6274 18.6274 24 12 24C5.37258 24 0 18.6274 0 12Z" fill="white"/>
<path fill-rule="evenodd" clip-rule="evenodd" d="M18.4016 11.9912C18.4016 12.424 18.3575 12.8563 18.271 13.2776C18.1866 13.6889 18.0616 14.0927 17.8978 14.4787C17.7378 14.8579 17.5394 15.2233 17.3075 15.5641C17.079 15.9027 16.8159 16.2204 16.5268 16.5099C16.2371 16.7983 15.9183 17.0607 15.5799 17.2901C15.238 17.5204 14.8721 17.7186 14.4926 17.8793C14.1061 18.0422 13.7013 18.167 13.2904 18.2513C12.8685 18.338 12.4347 18.3823 12.0013 18.3823C11.5675 18.3823 11.1337 18.338 10.7125 18.2513C10.3009 18.167 9.89618 18.0422 9.5099 17.8793C9.13052 17.7186 8.76423 17.5204 8.42235 17.2901C8.08389 17.0607 7.76513 16.7983 7.47605 16.5099C7.18667 16.2204 6.92351 15.9027 6.69476 15.5641C6.46412 15.2233 6.26534 14.8579 6.10472 14.4787C5.94094 14.0927 5.81564 13.6889 5.73095 13.2776C5.64533 12.8563 5.60156 12.424 5.60156 11.9912C5.60156 11.5581 5.6453 11.1249 5.73097 10.7045C5.81567 10.2932 5.94097 9.88881 6.10475 9.50342C6.26537 9.12396 6.46414 8.75823 6.69478 8.41744C6.92354 8.07854 7.18669 7.76147 7.47607 7.47155C7.76515 7.18319 8.08392 6.92139 8.42237 6.69234C8.76426 6.46108 9.13054 6.26295 9.50993 6.10191C9.8962 5.93866 10.3009 5.81354 10.7125 5.72992C11.1338 5.6438 11.5675 5.6001 12.0013 5.6001C12.4347 5.6001 12.8685 5.6438 13.2904 5.72992C13.7014 5.81357 14.1061 5.93869 14.4927 6.10191C14.8721 6.26292 15.238 6.46108 15.5799 6.69234C15.9184 6.92139 16.2371 7.18319 16.5268 7.47155C16.8159 7.76147 17.0791 8.07854 17.3075 8.41744C17.5394 8.75823 17.7378 9.12398 17.8978 9.50342C18.0616 9.88881 18.1866 10.2932 18.271 10.7045C18.3575 11.1249 18.4016 11.5581 18.4016 11.9912ZM9.66925 7.05463C8.14509 7.77334 7.00754 9.17575 6.65283 10.8659C6.79691 10.8672 9.07453 10.8959 11.6987 10.1996C10.7527 8.52133 9.74207 7.15171 9.66925 7.05463ZM12.1516 11.0401C9.33736 11.8814 6.63689 11.8208 6.54002 11.8171C6.53844 11.8758 6.53564 11.9325 6.53564 11.9912C6.53564 13.3933 7.06535 14.6715 7.93602 15.638C7.93414 15.6352 9.42987 12.9855 12.3794 12.033C12.4506 12.0093 12.5231 11.9881 12.595 11.9675C12.4578 11.6573 12.3081 11.3465 12.1516 11.0401ZM15.6108 7.89504C14.6486 7.04776 13.3851 6.53382 12.0013 6.53382C11.5572 6.53382 11.1262 6.5875 10.7134 6.68673C10.7952 6.79659 11.8219 8.15656 12.7566 9.8704C14.8189 9.09836 15.5974 7.915 15.6108 7.89504ZM12.9676 12.8719C12.9554 12.8759 12.9432 12.8794 12.9313 12.8837C9.70653 14.0063 8.65343 16.2687 8.64204 16.2934C9.56992 17.0139 10.7337 17.4486 12.0013 17.4486C12.7582 17.4486 13.4792 17.2947 14.1351 17.0161C14.0542 16.5393 13.7367 14.8678 12.9676 12.8719ZM15.0555 16.5174C16.2827 15.6905 17.1543 14.3773 17.3975 12.8562C17.285 12.82 15.7558 12.3366 13.9916 12.6191C14.7086 14.5864 14.9998 16.1885 15.0555 16.5174ZM13.1773 10.6837C13.3041 10.9439 13.427 11.2088 13.5404 11.4751C13.5807 11.5706 13.6201 11.6642 13.6586 11.7578C15.5361 11.5219 17.3859 11.9188 17.465 11.935C17.4525 10.6412 16.989 9.45379 16.2221 8.52416C16.2118 8.5388 15.3352 9.80361 13.1773 10.6837Z" fill="white"/>
</svg>
